<?xml version="1.0" encoding="UTF-8"?>
<svg version="1.1" xmlns="http://www.w3.org/2000/svg" width="468" height="288">
<path d="M0 0 C154.44 0 308.88 0 468 0 C468 95.04 468 190.08 468 288 C313.56 288 159.12 288 0 288 C0 192.96 0 97.92 0 0 Z " fill="#FCFDFC" transform="translate(0,0)"/>
<path d="M0 0 C5.43236977 3.78694879 10.28330506 8.18011287 15.0625 12.75 C15.92875 13.53375 16.795 14.3175 17.6875 15.125 C29.43200551 28.10576924 39.05361221 46.55485321 43.0625 63.75 C44.3825 63.75 45.7025 63.75 47.0625 63.75 C47.27865967 63.12544922 47.49481934 62.50089844 47.7175293 61.85742188 C48.71826664 58.9846545 49.73400474 56.11740494 50.75 53.25 C51.08966797 52.26773438 51.42933594 51.28546875 51.77929688 50.2734375 C53.93832135 44.22009784 56.48338063 39.06926393 60.0625 33.75 C61.30162493 31.65168223 62.53184305 29.54805957 63.75 27.4375 C65.45801313 24.47972116 67.16749376 21.59250936 69.0625 18.75 C69.7225 18.75 70.3825 18.75 71.0625 18.75 C71.32546875 18.16089844 71.5884375 17.57179688 71.859375 16.96484375 C73.11674859 14.65013328 74.43239776 13.14602313 76.3125 11.3125 C76.87453125 10.75691406 77.4365625 10.20132812 78.015625 9.62890625 C82.81909048 5.21961828 87.0957926 1.9825059 93 -0.875 C94.16402344 -1.44476563 95.32804688 -2.01453125 96.52734375 -2.6015625 C98.27724609 -3.41753906 98.27724609 -3.41753906 100.0625 -4.25 C101.08085937 -4.80429688 102.09921875 -5.35859375 103.1484375 -5.9296875 C108.69002129 -8.25883735 114.84823413 -7.76244442 120.75 -7.75 C122.55500977 -7.79253906 122.55500977 -7.79253906 124.39648438 -7.8359375 C135.04560029 -7.85895018 144.67977365 -5.00275179 153.0625 1.75 C153.0625 2.41 153.0625 3.07 153.0625 3.75 C153.63613281 3.98847656 154.20976562 4.22695313 154.80078125 4.47265625 C157.53188617 6.01509374 159.18728197 7.83066082 161.25 10.1875 C161.94480469 10.96996094 162.63960937 11.75242187 163.35546875 12.55859375 C165.0625 14.75 165.0625 14.75 166.0625 17.75 C165.55460938 17.48316406 165.04671875 17.21632813 164.5234375 16.94140625 C161.30133366 15.38149883 158.00438778 14.02927252 154.6875 12.6875 C154.04039062 12.41873047 153.39328125 12.14996094 152.7265625 11.87304688 C141.28239522 7.24692684 128.42493422 7.33676154 117 12 C110.05864167 15.88959928 110.05864167 15.88959928 105.0625 21.75 C104.4025 21.75 103.7425 21.75 103.0625 21.75 C102.794375 22.389375 102.52625 23.02875 102.25 23.6875 C101.0625 25.75 101.0625 25.75 98.0625 26.75 C96.98799553 29.06528176 96.98799553 29.06528176 96.0625 31.75 C95.16453691 33.36471074 94.24641667 34.96831428 93.3125 36.5625 C86.43103609 49.08037078 79.43287253 65.36865804 82.0625 79.75 C90.06366445 81.46684905 97.89709331 83.03178897 106.0859375 83.5390625 C108.0625 83.75 108.0625 83.75 109.0625 84.75 C111.07224613 84.96321886 113.08279145 85.17079926 115.09619141 85.34619141 C122.8324943 86.02470698 129.16849594 86.91999774 136.0625 90.75 C135.60054181 95.7160506 134.42287098 98.09718294 131.0625 101.75 C128.81005819 103.42629957 126.61732469 104.95127584 124.25 106.4375 C123.65896484 106.82744141 123.06792969 107.21738281 122.45898438 107.61914062 C114.50508397 112.69333009 105.94855475 114.06162948 96.68359375 112.296875 C94.80178292 111.81169357 92.9310785 111.28387957 91.0625 110.75 C90.0725 110.75 89.0825 110.75 88.0625 110.75 C83.9243745 121.6682057 82.32928304 131.33428336 82.57543945 142.99609375 C82.62511966 145.38074375 82.63695975 147.76331403 82.64257812 150.1484375 C82.72929109 162.09393816 83.56116604 173.83505754 87.125 185.3125 C88.29014473 189.11570827 89.35509948 192.83377238 90.0625 196.75 C84.14513982 191.25688356 82.11353267 183.34210989 79.875 175.8125 C79.36336012 174.11507438 78.8491768 172.4184126 78.33203125 170.72265625 C78.00102417 169.61289429 78.00102417 169.61289429 77.66333008 168.48071289 C77.20110752 166.74324159 77.20110752 166.74324159 76.0625 165.75 C75.60790142 163.09536879 75.36006762 160.42810862 75.0625 157.75 C71.00810313 163.44807128 69.15128113 168.36265586 67.73828125 175.2109375 C67.0625 177.75 67.0625 177.75 65.0625 179.75 C64.74250797 181.61771811 64.74250797 181.61771811 64.75390625 183.75 C64.73062256 184.55074951 64.70733887 185.35149902 64.68334961 186.17651367 C64.66409424 187.02576416 64.64483887 187.87501465 64.625 188.75 C64.37647479 195.80480229 63.76298842 202.14314468 61.0625 208.75 C59.7425 207.76 58.4225 206.77 57.0625 205.75 C56.9078125 207.296875 56.9078125 207.296875 56.75 208.875 C56.06602161 212.73015093 55.05550515 215.40175135 53.0625 218.75 C52.4025 219.08 51.7425 219.41 51.0625 219.75 C50.12016495 221.74032585 49.25535188 223.76787029 48.4375 225.8125 C47.99148437 226.91722656 47.54546875 228.02195313 47.0859375 229.16015625 C46.74820313 230.01480469 46.41046875 230.86945313 46.0625 231.75 C45.0725 231.42 44.0825 231.09 43.0625 230.75 C41.78125 228.09765625 41.78125 228.09765625 40.5625 224.8125 C38.88237414 219.9768886 38.88237414 219.9768886 35.0625 216.75 C33.89453125 214.1484375 33.89453125 214.1484375 32.875 211.125 C32.53082031 210.12210938 32.18664062 209.11921875 31.83203125 208.0859375 C31.57808594 207.31507813 31.32414062 206.54421875 31.0625 205.75 C30.7325 206.74 30.4025 207.73 30.0625 208.75 C29.4025 208.75 28.7425 208.75 28.0625 208.75 C25.84371413 202.20901925 25.71325712 196.08496291 25.671875 189.22070312 C25.52529456 183.88273207 24.71189499 180.16009078 21.96435547 175.54907227 C20.93603946 173.49772937 20.73436295 171.90338869 20.5625 169.625 C20.00207271 165.28168847 18.58544713 163.24957183 16.0625 159.75 C16.0625 158.76 16.0625 157.77 16.0625 156.75 C15.4025 156.75 14.7425 156.75 14.0625 156.75 C13.89814453 158.70486328 13.89814453 158.70486328 13.73046875 160.69921875 C13.18562502 165.56287609 11.96953412 169.94876557 10.375 174.5625 C9.98223877 175.72338135 9.98223877 175.72338135 9.58154297 176.90771484 C7.28704587 183.49602367 4.44129609 189.63941133 1.0625 195.75 C-0.15609943 192.0942017 0.40407213 191.42284868 1.8125 187.9375 C6.99278668 172.77436918 7.35320441 156.81274299 7.4375 140.9375 C7.44535522 140.20061951 7.45321045 139.46373901 7.46130371 138.70452881 C7.52871708 130.5898143 7.33616679 123.28712027 4.0625 115.75 C3.39583333 113.75 2.72916667 111.75 2.0625 109.75 C1.27101563 110.0696875 0.47953125 110.389375 -0.3359375 110.71875 C-9.70355683 113.40101844 -21.73877254 113.45176208 -30.625 109.3125 C-36.07112297 106.04018464 -41.26703744 101.98106303 -44.9375 96.75 C-45.67578125 93.46875 -45.67578125 93.46875 -45.9375 90.75 C-36.49507688 85.08454613 -25.20097886 84.47892262 -14.48657227 83.51928711 C-6.9046764 82.81451559 0.73408288 81.88968383 8.0625 79.75 C11.26562583 73.34374834 7.89647821 63.54428889 5.8125 57.1875 C4.93177706 54.69238475 4.00378301 52.22385083 3.0625 49.75 C2.65644531 48.66074219 2.25039062 47.57148437 1.83203125 46.44921875 C-0.45598116 40.62182145 -3.11630399 35.55950383 -6.80078125 30.4921875 C-7.9375 28.75 -7.9375 28.75 -7.9375 26.75 C-9.4225 26.255 -9.4225 26.255 -10.9375 25.75 C-12.15625 24.3671875 -12.15625 24.3671875 -13.4375 22.625 C-20.00711178 14.72195217 -29.7327875 9.53779673 -39.93603516 8.55810547 C-52.9284012 7.64177454 -63.32418111 9.79001083 -73.9375 17.75 C-74.2675 16.76 -74.5975 15.77 -74.9375 14.75 C-68.05768352 6.6575108 -61.92064177 -0.00755903 -51.9375 -4.25 C-51.15246094 -4.58644531 -50.36742187 -4.92289063 -49.55859375 -5.26953125 C-33.17687639 -11.39741658 -14.91774914 -9.00100476 0 0 Z " fill="#2EA749" transform="translate(190.9375,17.25)"/>
<path d="M0 0 C3.32525101 3.06802014 4.91620773 6.71138769 6.8125 10.75 C12.62363646 22.62699682 19.81778758 30.31482084 32.6875 34.9375 C37.203998 36.10656138 41.67021477 36.30400096 46.3125 36.375 C46.99465576 36.38909912 47.67681152 36.40319824 48.37963867 36.41772461 C52.82398692 36.37451187 55.36140131 35.46748345 59 33 C63.62869831 31.3737006 68.73743061 31.62282434 73.58984375 31.37890625 C76.91041851 31.16955483 76.91041851 31.16955483 79.44921875 29.98828125 C82.90462595 28.64950939 86.21992186 28.61820223 89.875 28.625 C90.58809326 28.62371094 91.30118652 28.62242188 92.03588867 28.62109375 C97.58634224 28.73336588 100.62065107 29.74094964 105 33 C105.99 33 106.98 33 108 33 C109.5787095 29.84258099 109.49737365 26.43424666 109 23 C107.14847908 18.75004737 104.7995432 15.1049437 102.0625 11.375 C101.39347656 10.45460938 100.72445312 9.53421875 100.03515625 8.5859375 C98.06609534 5.97055741 98.06609534 5.97055741 95.74609375 3.7890625 C94 2 94 2 94 0 C105.48310852 0.38277028 115.80246796 6.07571903 124 14 C129.92958483 20.55481316 133.31197994 26.01107784 133 35 C136.465 34.505 136.465 34.505 140 34 C141.76462683 37.08809695 142 38.23312136 142 42 C141.39671875 42.09796875 140.7934375 42.1959375 140.171875 42.296875 C135.29306094 43.20968537 132.08985621 43.84057817 129 48 C128.38125 49.175625 128.38125 49.175625 127.75 50.375 C125.00012322 54.49981517 120.79497981 58.08306986 116.0234375 59.6484375 C112.29601671 60.29605887 108.75420573 60.59771791 105 60 C102.125 57.8125 102.125 57.8125 100 55 C99.401875 54.236875 98.80375 53.47375 98.1875 52.6875 C96.47613686 48.81441499 96.59670543 46.23459301 97 42 C98.5 39.5 98.5 39.5 100 38 C96.49598928 36.92909208 93.21545784 36.83361536 89.5625 36.8125 C88.45003906 36.79832031 87.33757812 36.78414062 86.19140625 36.76953125 C83.05648662 36.83151713 83.05648662 36.83151713 80.55859375 37.98828125 C76.10334984 39.74997312 71.33639952 39.35659921 66.59375 39.4609375 C62.450307 40.08245395 60.85799263 40.97722221 58 44 C56.63514947 46.52890062 56.63514947 46.52890062 55.8125 49.3125 C55.50957031 50.21613281 55.20664063 51.11976562 54.89453125 52.05078125 C54.26721191 54.11901749 53.71743418 56.21160799 53.2265625 58.31640625 C51.67817118 62.96651138 49.296908 66.58934178 46.5625 70.625 C45.58401515 72.09594175 44.60613446 73.5672856 43.62890625 75.0390625 C43.19650635 75.68053223 42.76410645 76.32200195 42.31860352 76.98291016 C41.88346436 77.6485498 41.4483252 78.31418945 41 79 C40.18873657 80.18311768 40.18873657 80.18311768 39.36108398 81.39013672 C37.79110757 84.40054889 37.61817858 86.34094422 37.59375 89.71875 C37.57449463 90.80921631 37.55523926 91.89968262 37.53540039 93.02319336 C37.5178772 94.74421265 37.5178772 94.74421265 37.5 96.5 C36.97437924 115.30539991 32.46461921 129.30307118 22 145 C22.99797607 144.97643433 22.99797607 144.97643433 24.01611328 144.95239258 C27.0523212 144.88974403 30.08839272 144.85091491 33.125 144.8125 C34.17171875 144.78736328 35.2184375 144.76222656 36.296875 144.73632812 C41.91710268 144.68297153 46.22713979 144.65279934 51 148 C54.88144406 153.2093065 55.45024551 156.58400142 55 163 C53.91522061 161.37283091 52.84788126 159.73045626 51.88671875 158.02734375 C51.49097656 157.33769531 51.09523438 156.64804688 50.6875 155.9375 C50.29949219 155.24527344 49.91148438 154.55304688 49.51171875 153.83984375 C47.54373891 151.44470549 45.94161032 150.95541686 43 150 C38.65368307 149.58706135 34.30149795 149.67558302 29.9375 149.6875 C28.16149414 149.66333008 28.16149414 149.66333008 26.34960938 149.63867188 C25.21201172 149.63802734 24.07441406 149.63738281 22.90234375 149.63671875 C21.86585693 149.63373779 20.82937012 149.63075684 19.76147461 149.62768555 C16.65938025 150.04592389 15.29254305 150.92363748 13 153 C13.47913106 155.58730774 14.12354801 157.1927349 15.5625 159.4375 C17.17881152 162.31875098 17.33290518 163.75417453 17 167 C16.6596875 167.99 16.6596875 167.99 16.3125 169 C15.82017706 171.13046706 15.82017706 171.13046706 16.88671875 173.58203125 C19.31600148 176.36156176 19.7709423 176.38050263 23.28125 176.63671875 C25.02047791 176.67574418 26.76033881 176.69145665 28.5 176.6875 C30.32304267 176.72623642 32.14597742 176.77046085 33.96875 176.8203125 C34.84273437 176.84254883 35.71671875 176.86478516 36.6171875 176.88769531 C39.48153731 177.02269541 42.19814553 177.46092536 45 178.0625 C51.17545895 179.36978515 60.0968453 180.73896373 66 178 C67.69826925 175.34077666 67.69826925 175.34077666 69.0625 172.125 C72.23316939 165.14448117 72.23316939 165.14448117 75 163 C75.66 163 76.32 163 77 163 C76.34 164.65 75.68 166.3 75 168 C80.11796792 166.49830505 80.11796792 166.49830505 85.23413086 164.99047852 C88.50970599 164.02282655 91.78474554 163.06017279 95.07421875 162.140625 C100.39163911 160.63805724 105.18181175 158.71334825 110 156 C110.81339844 155.55785156 111.62679687 155.11570313 112.46484375 154.66015625 C115.22190553 152.85468436 117.10039461 150.92759632 119.25 148.4375 C119.93578125 147.65246094 120.6215625 146.86742187 121.328125 146.05859375 C123.03727941 144.10604219 123.03727941 144.10604219 124 142 C124.66 142 125.32 142 126 142 C128.13072305 135.03359344 130.11380178 128.03645577 132 121 C132.33 121 132.66 121 133 121 C133.93285456 132.01286628 131.46367119 143.98938382 124.76953125 152.9375 C115.02152642 164.29941292 115.02152642 164.29941292 108 167 C108.9590625 167.7425 108.9590625 167.7425 109.9375 168.5 C118.68408505 175.64006943 126.37329224 182.48475509 131 193 C131.29390625 193.63550781 131.5878125 194.27101562 131.890625 194.92578125 C137.58358512 208.00603486 141.04855886 221.71629824 140 236 C137.68128197 233.68128197 137.6622058 232.90079457 137.1875 229.75 C133.37847579 209.35707039 122.90413471 189.41561447 106 177 C103.04723573 175.52844264 100.2345684 174.61506224 97 174 C95.91460937 173.78214844 94.82921875 173.56429687 93.7109375 173.33984375 C89.50878469 172.95501502 86.3911819 173.51086816 82.3125 174.5625 C80.38857422 175.02849609 80.38857422 175.02849609 78.42578125 175.50390625 C74.28279035 177.31321698 73.20486714 179.13277253 71 183 C69.06212937 185.60067856 68.24970231 185.94498085 65.00390625 186.66015625 C63.86824219 186.79292969 62.73257813 186.92570313 61.5625 187.0625 C57.16316918 187.48606647 57.16316918 187.48606647 53.109375 189.0390625 C49.75842004 190.56560865 46.3016278 190.32811853 42.6875 190.3125 C41.95337891 190.32861328 41.21925781 190.34472656 40.46289062 190.36132812 C35.24830156 190.36595509 31.63767535 189.40494048 27 187 C26.2575 186.195625 26.2575 186.195625 25.5 185.375 C23.92741948 183.66271053 23.92741948 183.66271053 20.6875 183.625 C16.07503091 182.84322558 14.20945256 181.35872942 11 178 C8.67869361 173.24132191 8.24760141 167.81050856 7.46484375 162.609375 C7.13219212 160.02820505 7.13219212 160.02820505 6 158 C5.47690407 154.86142441 5.54300546 152.78363829 7.1640625 150.00390625 C9.39554667 146.97709824 11.6713346 144.30338345 14.4375 141.75 C21.15438667 134.54163381 24.71028789 125.91403177 27.2734375 116.51953125 C28 114 28 114 29 113 C29.23527773 110.65012738 29.41386417 108.29443961 29.5625 105.9375 C29.64628906 104.64714844 29.73007813 103.35679687 29.81640625 102.02734375 C29.90728516 100.52880859 29.90728516 100.52880859 30 99 C29.43023437 99.1546875 28.86046875 99.309375 28.2734375 99.46875 C18.91734279 101.65505392 11.71539549 98.90766441 3.66015625 94.078125 C-3.19805686 89.62432072 -10.09639209 83.28468562 -14 76 C-14.64136132 71.75098128 -14.39989427 70.5998414 -12 67 C-10.515 66.505 -10.515 66.505 -9 66 C-8.41347656 65.38640625 -7.82695313 64.7728125 -7.22265625 64.140625 C-1.73177198 58.852392 7.24391687 55.64061169 14.8125 55.4375 C23.23008938 55.99209959 29.30393047 58.80082112 35.95703125 63.890625 C37.92701172 65.195754 37.92701172 65.195754 40.13671875 64.859375 C42.35598331 64.03287146 42.35598331 64.03287146 44 61 C43.071875 61.0825 42.14375 61.165 41.1875 61.25 C31.6485147 61.19242061 22.32292106 55.70879259 15 50 C13.63131752 48.36223817 12.29691513 46.69515978 11 45 C10.32195313 44.35417969 9.64390625 43.70835938 8.9453125 43.04296875 C6.6607134 40.64368094 5.35373986 38.27385076 3.875 35.3125 C3.37742187 34.33925781 2.87984375 33.36601563 2.3671875 32.36328125 C-0.64081678 24.96359072 -1.30505501 17.9318693 -1.1875 10 C-1.18685547 9.14277344 -1.18621094 8.28554688 -1.18554688 7.40234375 C-1.14089311 1.14089311 -1.14089311 1.14089311 0 0 Z " fill="#2FA549" transform="translate(49,29)"/>
<path d="M0 0 C1.37671875 0.00966797 1.37671875 0.00966797 2.78125 0.01953125 C5.437562 0.18364248 7.89667394 0.65967788 10.5 1.1875 C11.83841672 0.87520276 13.17139075 0.53919068 14.5 0.1875 C23.00175646 -0.49264052 30.7915354 1.95162519 37.5 7.1875 C38.11875 7.64125 38.7375 8.095 39.375 8.5625 C41.08761248 11.03627359 40.6945254 13.26961895 40.5 16.1875 C41.1403418 16.23648438 41.78068359 16.28546875 42.44042969 16.3359375 C49.93748949 16.95778872 57.32301719 18.00398542 64.75 19.1875 C67.00516286 19.54195612 69.26036995 19.89613094 71.515625 20.25 C72.55396484 20.41371094 73.59230469 20.57742187 74.66210938 20.74609375 C77.93783381 21.25560079 81.21638436 21.73196951 84.5 22.1875 C84.5 22.8475 84.5 23.5075 84.5 24.1875 C83.73816406 24.29707031 82.97632813 24.40664062 82.19140625 24.51953125 C75.05289424 25.61570725 67.92367805 26.78483565 61.5078125 30.26953125 C58.14075883 31.80894295 55.16927225 31.36504543 51.5 31.1875 C50.84 30.8575 50.18 30.5275 49.5 30.1875 C49.5 32.8275 49.5 35.4675 49.5 38.1875 C48.66855469 38.33445313 47.83710938 38.48140625 46.98046875 38.6328125 C40.20514118 39.80314115 40.20514118 39.80314115 35.25 44.125 C34.34142085 47.30953161 34.34142085 47.30953161 34.5 51.1875 C35.16 49.8675 35.82 48.5475 36.5 47.1875 C39.14 47.1875 41.78 47.1875 44.5 47.1875 C43.98990553 49.99301961 43.35666437 52.66703343 42.5390625 55.40234375 C41.50729812 59.160914 40.85995035 62.84012086 40.25 66.6875 C38.82430207 75.03054614 35.92201711 82.47965564 32.5 90.1875 C31.84 90.1875 31.18 90.1875 30.5 90.1875 C30.17 89.5275 29.84 88.8675 29.5 88.1875 C29.47421875 88.92355469 29.4484375 89.65960938 29.421875 90.41796875 C28.96169607 98.33513802 28.96169607 98.33513802 26.875 102.1875 C22.15290159 106.16400393 17.63287399 107.63624688 11.5 107.1875 C11.13686403 104.17865908 10.88752419 102.10330366 11.5 99.1875 C13.98151767 96.1328234 16.99211121 93.9414444 20.5 92.1875 C20.5 90.8675 20.5 89.5475 20.5 88.1875 C19.5925 88.868125 18.685 89.54875 17.75 90.25 C12.64094296 93.19632737 7.07956876 92.50172847 1.5 91.1875 C-0.86328125 89.62890625 -0.86328125 89.62890625 -2.5 88.1875 C-2.5 89.5075 -2.5 90.8275 -2.5 92.1875 C-1.695625 92.55875 -1.695625 92.55875 -0.875 92.9375 C-0.09125 93.35 0.6925 93.7625 1.5 94.1875 C2.5725 94.703125 3.645 95.21875 4.75 95.75 C7.5 98.1875 7.5 98.1875 7.8828125 100.44921875 C7.87567004 102.72409267 7.76065984 104.92844806 7.5 107.1875 C2.23809662 107.75127536 -0.56092406 107.57500139 -4.875 104.375 C-7.76335635 102.04475234 -10.14498371 99.93913698 -10.9140625 96.14453125 C-11.109375 94.15885417 -11.3046875 92.17317708 -11.5 90.1875 C-12.49 89.8575 -13.48 89.5275 -14.5 89.1875 C-17.90631043 82.01100028 -19.8814711 74.32220264 -21.109375 66.5 C-21.59966212 63.59750023 -22.51802482 60.9601358 -23.5 58.1875 C-24.53409588 54.52995891 -25.5198418 50.85982607 -26.5 47.1875 C-25.72269531 47.1978125 -24.94539063 47.208125 -24.14453125 47.21875 C-21.7231588 47.19013703 -19.80772388 46.87127004 -17.5 46.1875 C-16.84 47.8375 -16.18 49.4875 -15.5 51.1875 C-15.95548187 46.29106985 -16.90957286 43.59840579 -20.5 40.1875 C-22.8287065 39.11898668 -25.14872202 38.20070101 -27.57421875 37.375 C-29.5 36.1875 -29.5 36.1875 -30.26953125 33.5625 C-30.34558594 32.77875 -30.42164063 31.995 -30.5 31.1875 C-31.13164062 31.24550781 -31.76328125 31.30351563 -32.4140625 31.36328125 C-39.76599063 31.73405572 -45.286368 30.08755468 -52.10546875 27.43359375 C-56.50068718 25.82015914 -60.88335661 24.90020762 -65.5 24.1875 C-65.5 23.5275 -65.5 22.8675 -65.5 22.1875 C-61.40996141 21.03767398 -57.46822949 21.07655744 -53.25 21.125 C-52.50492188 21.12951172 -51.75984375 21.13402344 -50.9921875 21.13867188 C-49.1614236 21.15040754 -47.33070127 21.1683415 -45.5 21.1875 C-45.5 20.5275 -45.5 19.8675 -45.5 19.1875 C-44.27023438 18.98253906 -43.04046875 18.77757813 -41.7734375 18.56640625 C-40.98839844 18.43556641 -40.20335937 18.30472656 -39.39453125 18.16992188 C-36.15722656 17.63037109 -32.91992188 17.09082031 -29.68261719 16.55126953 C-28.96235352 16.43122559 -28.24208984 16.31118164 -27.5 16.1875 C-25.5 15.85416667 -23.5 15.52083333 -21.5 15.1875 C-21.54125 14.15625 -21.5825 13.125 -21.625 12.0625 C-21.23598388 9.15666746 -20.69271625 8.34501531 -18.3828125 6.45703125 C-12.42726938 2.87840371 -7.06780413 -0.1091936 0 0 Z " fill="#F5FBF6" transform="translate(226.5,85.8125)"/>
<path d="M0 0 C4.74468485 0.41620043 8.49057997 1.00496588 12.8359375 3.05859375 C15.74890494 4.32578717 18.74163892 5.29332756 21.75 6.3125 C28.2603148 8.61593765 34.06630926 11.49413997 40 15 C40.77214844 15.42667969 41.54429687 15.85335937 42.33984375 16.29296875 C48.02661595 19.51957328 53.26082434 23.2908813 58.5 27.1875 C59.20729248 27.71102051 59.91458496 28.23454102 60.64331055 28.77392578 C61.30758057 29.27520996 61.97185059 29.77649414 62.65625 30.29296875 C63.25244141 30.7418042 63.84863281 31.19063965 64.46289062 31.65307617 C66 33 66 33 68 36 C70.77262255 36.38394667 73.34323528 36.60342248 76.125 36.6875 C76.87910156 36.72166016 77.63320313 36.75582031 78.41015625 36.79101562 C80.27291201 36.87354278 82.13643326 36.93844711 84 37 C84 36.34 84 35.68 84 35 C84.85464844 34.79503906 85.70929688 34.59007812 86.58984375 34.37890625 C87.69457031 34.10949219 88.79929687 33.84007812 89.9375 33.5625 C91.03964844 33.29566406 92.14179688 33.02882812 93.27734375 32.75390625 C95.89421254 32.27004275 95.89421254 32.27004275 97 31 C99.67058851 30.85884839 102.32432238 30.95752893 105 31 C104.03603575 36.20540698 103.12319499 40.59913433 100 45 C106.77582677 45.34453356 112.43867774 44.33731583 118.984375 42.55859375 C122.05892415 41.98908529 124.01576623 42.16551982 127 43 C124.99179957 53.20074535 114.95688778 63.24144387 107.71875 70.203125 C101.69583036 75.71810734 101.69583036 75.71810734 98.390625 82.91796875 C98.63172271 85.76694004 99.20737197 88.25628758 100 91 C100.27418285 92.79115714 100.54512801 94.58281353 100.8125 96.375 C102.2637022 103.03160138 105.93063859 106.19394609 111.31640625 109.984375 C115.33038595 112.40580127 119.46112476 112.36009527 124 112 C126.33932406 111.35466922 128.67328146 110.68939809 131 110 C134.07281724 109.56102611 136.00086513 109.37203907 138.671875 111.05078125 C140.8836114 112.83596849 142.71786027 114.43572054 144 117 C144.2596277 123.24509864 143.58671396 129.20129225 142.6875 135.375 C142.56955078 136.25671875 142.45160156 137.1384375 142.33007812 138.046875 C140.12198565 153.49219878 140.12198565 153.49219878 135.9375 158.4375 C132.54925867 160.23975602 129.22772093 161.21309541 125.5390625 162.23046875 C121.76356074 163.37473621 118.44815743 165.10701893 115 167 C114.16855469 167.45503906 113.33710938 167.91007813 112.48046875 168.37890625 C110.62078516 169.39787451 108.7614228 170.41742919 106.90234375 171.4375 C103.07873175 173.49597214 99.20347785 175.43588348 95.30859375 177.35546875 C92.87140038 178.56687183 90.450632 179.79756128 88.03515625 181.05078125 C81.557124 184.39093315 75.31195236 187.60957178 68.2109375 189.4296875 C65.8781029 189.99118204 65.8781029 189.99118204 63.21875 191.03125 C59.50949297 192.14762833 55.9676223 192.45658057 52.125 192.625 C51.01342529 192.67865723 51.01342529 192.67865723 49.87939453 192.73339844 C47.58657613 192.83556094 45.2936838 192.9198497 43 193 C41.95682617 193.04302246 41.95682617 193.04302246 40.89257812 193.08691406 C27.71715314 193.58684613 14.76020678 192.38300697 3 186 C1.88625 185.40960938 0.7725 184.81921875 -0.375 184.2109375 C-12.87726575 177.43282201 -24.0231858 168.9250256 -29 155 C-28.01 155.845625 -27.02 156.69125 -26 157.5625 C-25.3503125 158.11421875 -24.700625 158.6659375 -24.03125 159.234375 C-22.75674481 160.34221413 -21.50277265 161.47462611 -20.28125 162.640625 C-16.01355586 166.64626775 -11.42047376 169.7805803 -6.4375 172.8125 C-5.81230469 173.19768799 -5.18710937 173.58287598 -4.54296875 173.97973633 C-0.44405116 176.40970126 3.36831004 177.87337271 8 179 C8 179.66 8 180.32 8 181 C11.63 181.33 15.26 181.66 19 182 C17.87658203 181.17822266 17.87658203 181.17822266 16.73046875 180.33984375 C13.91423794 177.92650719 12.25260795 175.70591085 10.3125 172.5625 C9.73113281 171.63566406 9.14976562 170.70882812 8.55078125 169.75390625 C2.09108616 158.2826593 0.93505326 141.72565888 4 129 C4.33 129 4.66 129 5 129 C5.01417969 129.76441406 5.02835937 130.52882812 5.04296875 131.31640625 C5.67928573 145.60774156 10.26692455 162.47330355 21.11328125 172.47265625 C24.23307904 174.99820684 27.48073144 177.07782922 31 179 C32.03125 179.5775 33.0625 180.155 34.125 180.75 C50.37789346 187.22894386 68.53780329 180.17126344 83.6640625 173.89453125 C85.05113215 173.27665477 86.43313771 172.64722131 87.80859375 172.00390625 C91.61783153 170.25885436 95.51639402 168.72332336 99.3984375 167.1484375 C102.15538322 166.02022726 102.15538322 166.02022726 105 164 C103.90300781 163.73445312 102.80601562 163.46890625 101.67578125 163.1953125 C100.22130753 162.83873185 98.76688302 162.4819504 97.3125 162.125 C96.59126953 161.95097656 95.87003906 161.77695313 95.12695312 161.59765625 C88.32413298 159.92024854 83.64048809 157.97390562 78.1875 153.375 C77.21167969 152.55773437 76.23585938 151.74046875 75.23046875 150.8984375 C74.49441406 150.27195313 73.75835937 149.64546875 73 149 C72.34 150.32 71.68 151.64 71 153 C70.34 152.67 69.68 152.34 69 152 C70.14194429 149.19936568 71.32801232 146.52667787 73 144 C75.75 143 75.75 143 78 143 C77.67 144.65 77.34 146.3 77 148 C86.31651422 154.58972957 94.66820349 156.17220509 105.875 156.0625 C106.75414062 156.05798828 107.63328125 156.05347656 108.5390625 156.04882812 C110.69273803 156.03712337 112.84637817 156.01919069 115 156 C114.51853516 154.90365234 114.51853516 154.90365234 114.02734375 153.78515625 C111.19067736 146.09487817 113.10424361 138.98950133 116.35546875 131.71875 C118.80457835 127.66986572 121.92392246 125.30606868 126 123 C126.66 123.33 127.32 123.66 128 124 C127.01 124.33 126.02 124.66 125 125 C124.0452123 126.92811046 124.0452123 126.92811046 123.4375 129.25 C122.70266945 131.72434466 121.97653713 134.05272747 120.92578125 136.4140625 C119.83934157 139.448759 119.73387593 141.90824725 119.75 145.125 C119.74484375 146.15882813 119.7396875 147.19265625 119.734375 148.2578125 C119.80323618 151.21607277 119.80323618 151.21607277 122 154 C124.66653905 154.36460453 124.66653905 154.36460453 127.625 154.1875 C128.62789062 154.16042969 129.63078125 154.13335937 130.6640625 154.10546875 C131.43492187 154.07066406 132.20578125 154.03585938 133 154 C133.13277344 153.37351563 133.26554688 152.74703125 133.40234375 152.1015625 C133.57894531 151.28429687 133.75554687 150.46703125 133.9375 149.625 C134.11152344 148.81289062 134.28554688 148.00078125 134.46484375 147.1640625 C135 145 135 145 136 143 C135.01 143 134.02 143 133 143 C132.609375 137.140625 132.609375 137.140625 133 135 C133.66 134.3915625 134.32 133.783125 135 133.15625 C137.31047819 131.08853121 137.31047819 131.08853121 137.390625 127.765625 C137.34421875 126.60546875 137.2978125 125.4453125 137.25 124.25 C137.21390625 123.07953125 137.1778125 121.9090625 137.140625 120.703125 C137.09421875 119.81109375 137.0478125 118.9190625 137 118 C134.12716585 116.68232271 134.12716585 116.68232271 131.87890625 117.85546875 C127.72541377 120.24390203 124.28279031 122.45458646 121 126 C120.34 126 119.68 126 119 126 C120.20381448 123.50638429 121.45428722 121.31856917 123 119 C118.32740781 118.6740052 115.70722917 119.07324013 112 122 C109.70417137 125.06717124 109.70417137 125.06717124 108 128 C107 125 107 125 108.4375 121.8125 C108.953125 120.884375 109.46875 119.95625 110 119 C110.66 119 111.32 119 112 119 C110.89958081 117.31318262 110.89958081 117.31318262 109 116 C105.35441547 116.07756563 103.5325236 116.56822411 100.6875 118.875 C98.81525527 120.98368784 98.81525527 120.98368784 98 124 C97.34 124 96.68 124 96 124 C96.33 122.35 96.66 120.7 97 119 C97.66 119 98.32 119 99 119 C99.1546875 118.071875 99.1546875 118.071875 99.3125 117.125 C100 115 100 115 103 113 C103 112.34 103 111.68 103 111 C98.28400182 110.07529447 95.32734391 109.77076223 91 112 C93.625 107.125 93.625 107.125 97 106 C96.72285156 105.3709375 96.44570313 104.741875 96.16015625 104.09375 C92.83774928 96.2429378 92.83774928 96.2429378 92.4375 91.875 C91.94353629 87.49989283 90.63444868 84.04399672 89 80 C88.32136945 78.0040278 87.65358081 76.00431449 87 74 C86.62875 72.88625 86.2575 71.7725 85.875 70.625 C85.58625 69.75875 85.2975 68.8925 85 68 C84.50371094 68.43570313 84.00742187 68.87140625 83.49609375 69.3203125 C82.07294752 70.56792836 80.64837509 71.81391857 79.22265625 73.05859375 C77.8523257 74.25552571 76.48456973 75.45542176 75.12109375 76.66015625 C65.30320797 85.24806081 57.60583633 88.29475511 44.5859375 88.49609375 C40.40787973 87.91808358 38.26083557 86.62516673 35 84 C33.625 81.75 33.625 81.75 33 80 C33.71929687 80.32226562 34.43859375 80.64453125 35.1796875 80.9765625 C42.48816001 83.62866748 50.14107284 82.28725535 57.21484375 79.48828125 C61.55393528 77.16963626 65.12146246 74.08707787 68.78515625 70.828125 C71 69 71 69 73 69 C73.226875 68.4534375 73.45375 67.906875 73.6875 67.34375 C75.99130568 63.22981128 79.46513504 60.06596176 82.6875 56.65625 C84.6173236 54.43956073 85.88553965 52.68483629 87 50 C87.66 50 88.32 50 89 50 C89.37125 48.948125 89.37125 48.948125 89.75 47.875 C91.16088026 44.62997541 92.97895398 41.89683263 95 39 C93.783125 39.474375 92.56625 39.94875 91.3125 40.4375 C84.91876208 42.9299741 78.92315593 43.18046957 72.1328125 43.28125 C70.70338821 43.30886414 70.70338821 43.30886414 69.24508667 43.33703613 C66.2051188 43.39562204 63.16509548 43.44848928 60.125 43.5 C56.12749401 43.56796967 52.13015226 43.64168269 48.1328125 43.71875 C46.76686447 43.73911316 46.76686447 43.73911316 45.37332153 43.7598877 C40.49189088 43.85431158 35.81606664 44.18952924 31 45 C34.32955394 40.91181352 37.19713445 40.20190527 42.3125 39.3125 C44.22482422 38.96638672 44.22482422 38.96638672 46.17578125 38.61328125 C49.7801391 38.03525859 53.38427345 37.50049514 57 37 C56.319375 36.60296875 55.63875 36.2059375 54.9375 35.796875 C52.19676264 34.12036012 49.54094507 32.34910985 46.88916016 30.53613281 C31.82160109 20.27819779 16.06430432 12.28441897 -2 9 C-2.58984375 7.171875 -2.58984375 7.171875 -3 5 C-1.5625 2.25 -1.5625 2.25 0 0 Z " fill="#30A84A" transform="translate(287,56)"/>
<path d="M0 0 C-0.33 1.32 -0.66 2.64 -1 4 C-0.34 3.71125 0.32 3.4225 1 3.125 C5.76307884 2.92653838 8.50528163 6.00824358 12 9 C11.34 10.32 10.68 11.64 10 13 C11.30186918 13.02981424 11.30186918 13.02981424 13.75 12.5 C17 13 17 13 18.5078125 14.78125 C19.76296153 16.81817758 20.92257809 18.8642256 22 21 C20.35 22.65 18.7 24.3 17 26 C17.8353125 25.505 17.8353125 25.505 18.6875 25 C21.30284522 23.8690399 23.1806646 23.84337026 26 24 C26.67408308 25.26691507 27.33900497 26.53870749 28 27.8125 C28.37125 28.52019531 28.7425 29.22789063 29.125 29.95703125 C30 32 30 32 30 35 C28.35 35.66 26.7 36.32 25 37 C25.66 37 26.32 37 27 37 C29 37 31 37 33 37 C33.50615298 38.26839526 34.00469099 39.53983102 34.5 40.8125 C34.7784375 41.52019531 35.056875 42.22789063 35.34375 42.95703125 C36 45 36 45 36 48 C34.02 48.99 32.04 49.98 30 51 C32.97 51 35.94 51 39 51 C39.495 54.96 39.495 54.96 40 59 C37.37605694 59.83679277 34.75095616 60.66956942 32.125 61.5 C31.00544922 61.85771484 31.00544922 61.85771484 29.86328125 62.22265625 C24.2265625 64 24.2265625 64 22 64 C21.82984375 63.40574219 21.6596875 62.81148438 21.484375 62.19921875 C19.58177066 55.69190708 17.46051784 49.31797483 15 43 C14.76829102 42.39349609 14.53658203 41.78699219 14.29785156 41.16210938 C7.21164062 22.86746439 -3.51344169 9.73146652 -21.5 1.25 C-28.8356487 -1.75009223 -36.17884474 -1.89082144 -44 -2 C-29.81622046 -9.41920776 -14.13110043 -5.81868841 0 0 Z " fill="#F2FBF3" transform="translate(185,21)"/>
<path d="M0 0 C0.75990234 0.00080566 1.51980469 0.00161133 2.30273438 0.00244141 C7.89805494 0.06315659 13.63975607 0.20084603 18.9375 2.1875 C19.4325 3.1775 19.4325 3.1775 19.9375 4.1875 C18.09285156 4.26097656 18.09285156 4.26097656 16.2109375 4.3359375 C14.57810434 4.41101029 12.94529288 4.48655615 11.3125 4.5625 C10.50425781 4.5934375 9.69601562 4.624375 8.86328125 4.65625 C0.28853326 5.07453039 -7.48584125 7.72408257 -14.375 12.9375 C-16.0625 14.1875 -16.0625 14.1875 -19.0625 14.1875 C-19.0625 14.8475 -19.0625 15.5075 -19.0625 16.1875 C-20.72346571 17.52792847 -22.3912503 18.85991573 -24.0625 20.1875 C-30.74688801 27.60410013 -34.84510752 35.41606233 -38.5625 44.5625 C-39.70785956 47.33045228 -40.90476282 49.8429638 -42.375 52.4375 C-44.55757925 56.59745873 -45.04334498 61.03672925 -45.66796875 65.6484375 C-46.0625 68.1875 -46.0625 68.1875 -47.0625 70.1875 C-53.0625 68.1875 -59.0625 66.1875 -65.0625 64.1875 C-64.1875 57.3125 -64.1875 57.3125 -63.0625 56.1875 C-61.54321962 56.11570036 -60.02082518 56.10357993 -58.5 56.125 C-57.67371094 56.13402344 -56.84742188 56.14304688 -55.99609375 56.15234375 C-55.35800781 56.16394531 -54.71992188 56.17554688 -54.0625 56.1875 C-56.7025 55.1975 -59.3425 54.2075 -62.0625 53.1875 C-59.55594978 45.30977074 -59.55594978 45.30977074 -58.0625 43.1875 C-55.26652714 42.32720066 -52.99078926 42.1875 -50.0625 42.1875 C-51.7125 41.1975 -53.3625 40.2075 -55.0625 39.1875 C-53.72909064 35.59755174 -52.41134529 32.23229945 -50.0625 29.1875 C-46.32959281 28.53424124 -45.27552289 29.04548474 -42.0625 31.1875 C-42.0625 30.5275 -42.0625 29.8675 -42.0625 29.1875 C-43.7125 28.5275 -45.3625 27.8675 -47.0625 27.1875 C-45.76474692 23.29424077 -44.43359499 20.62217972 -41.0625 18.1875 C-37.99974796 18.37126512 -35.8019691 18.81776545 -33.0625 20.1875 C-33.7225 19.56875 -34.3825 18.95 -35.0625 18.3125 C-37.0625 16.1875 -37.0625 16.1875 -37.0625 14.1875 C-35.19921875 12.6796875 -35.19921875 12.6796875 -32.75 11.0625 C-31.54923828 10.25425781 -31.54923828 10.25425781 -30.32421875 9.4296875 C-28.0625 8.1875 -28.0625 8.1875 -25.0625 8.1875 C-24.7325 7.1975 -24.4025 6.2075 -24.0625 5.1875 C-20.84948097 3.58099049 -17.61906052 2.66811629 -14.0625 2.1875 C-13.4025 2.5175 -12.7425 2.8475 -12.0625 3.1875 C-11.7325 2.5275 -11.4025 1.8675 -11.0625 1.1875 C-7.34465817 -0.05178061 -3.87317596 -0.0041845 0 0 Z " fill="#F1FAF3" transform="translate(312.0625,15.8125)"/>
<path d="M0 0 C0.61649414 0.29946533 1.23298828 0.59893066 1.86816406 0.9074707 C6.1455178 3.17928774 6.1455178 3.17928774 7.2734375 5.984375 C7.32371094 6.85835937 7.32371094 6.85835937 7.375 7.75 C6.715 7.75 6.055 7.75 5.375 7.75 C5.045 8.74 4.715 9.73 4.375 10.75 C3.63894531 10.26789063 2.90289062 9.78578125 2.14453125 9.2890625 C0.68080078 8.34160156 0.68080078 8.34160156 -0.8125 7.375 C-1.77542969 6.74851562 -2.73835938 6.12203125 -3.73046875 5.4765625 C-9.73441473 1.89526139 -14.69562773 0.87105308 -21.625 1.75 C-24.78107924 2.82064635 -27.69613868 4.16530209 -30.625 5.75 C-27.01507621 5.09414811 -27.01507621 5.09414811 -23.625 3.75 C-15.42689015 2.77136066 -7.47086727 4.4540633 -0.59765625 9.12890625 C1.0625 10.5 1.0625 10.5 3.375 12.75 C2.89933594 13.79220703 2.89933594 13.79220703 2.4140625 14.85546875 C1.28098948 18.01188644 0.97019989 20.72280167 0.75 24.0625 C0.67523438 25.13113281 0.60046875 26.19976562 0.5234375 27.30078125 C0.47445312 28.10902344 0.42546875 28.91726562 0.375 29.75 C-8.42481981 30.36204311 -14.45256522 30.04913339 -21.625 24.75 C-22.45902344 24.14542969 -23.29304688 23.54085937 -24.15234375 22.91796875 C-29.65873084 18.71986611 -34.29264431 14.14392629 -38.625 8.75 C-27.95385482 -2.53092491 -14.2250264 -6.92935057 0 0 Z " fill="#F4FCF5" transform="translate(78.625,94.25)"/>
<path d="M0 0 C2.125 0.9375 2.125 0.9375 4 2 C4.10832169 4.08218362 4.18573541 6.16599129 4.25 8.25 C4.29640625 9.41015625 4.3428125 10.5703125 4.390625 11.765625 C3.92005822 15.6619179 2.82519513 16.43559211 0 19 C-0.68116938 21.10938065 -0.68116938 21.10938065 -0.75 23.25 C-0.8325 24.4875 -0.915 25.725 -1 27 C-0.01 27 0.98 27 2 27 C0.125 34.625 0.125 34.625 -1 38 C-2.76696843 38.27599507 -4.53896215 38.51996915 -6.3125 38.75 C-7.29863281 38.88921875 -8.28476562 39.0284375 -9.30078125 39.171875 C-12 39 -12 39 -13.82421875 37.359375 C-16.58106043 31.82737376 -15.75258589 25.38876337 -13.9453125 19.65234375 C-12.24418373 15.51024618 -10.48620295 11.72930442 -8 8 C-10.31 9.32 -12.62 10.64 -15 12 C-15 11.34 -15 10.68 -15 10 C-14.34 10 -13.68 10 -13 10 C-12.67 9.01 -12.34 8.02 -12 7 C-9.78515625 5.4296875 -9.78515625 5.4296875 -7.0625 3.875 C-6.16660156 3.35679687 -5.27070313 2.83859375 -4.34765625 2.3046875 C-2.91393472 1.50791048 -1.46708174 0.73354087 0 0 Z " fill="#E8F7EB" transform="translate(421,172)"/>
<path d="M0 0 C1.32 0.66 2.64 1.32 4 2 C4 2.66 4 3.32 4 4 C4.7425 4.226875 5.485 4.45375 6.25 4.6875 C9.57697408 6.27537399 10.81216307 8.06009412 13 11 C14.299375 12.299375 14.299375 12.299375 15.625 13.625 C18.27021025 16.27021025 19.89409222 17.92067508 20.265625 21.70703125 C20.21374046 32.01908397 20.21374046 32.01908397 18 37 C17.34 37 16.68 37 16 37 C15.814375 37.556875 15.62875 38.11375 15.4375 38.6875 C13.30063386 42.12506726 10.58268606 44.15437385 7 46 C3.375 46.6875 3.375 46.6875 0 46 C-3 43.375 -3 43.375 -5 40 C-4.8125 36.625 -4.8125 36.625 -4 34 C-3.32453125 33.85304687 -2.6490625 33.70609375 -1.953125 33.5546875 C2.55997039 32.41989184 5.3535118 31.67727335 8.625 28.25 C11.04954345 22.51926093 10.39273078 17.68644848 8.1328125 12.05859375 C6.36189702 8.84041286 3.96185604 6.29990007 1.42578125 3.6640625 C0 2 0 2 0 0 Z " fill="#F0FAF2" transform="translate(155,37)"/>
<path d="M0 0 C1.48034764 0.47550561 2.95925021 0.95551216 4.4375 1.4375 C5.26121094 1.70433594 6.08492187 1.97117188 6.93359375 2.24609375 C9 3 9 3 10 4 C16.13944466 4.68508825 20.53041527 3.73479237 26 1 C26.99 0.67 27.98 0.34 29 0 C29 4.29 29 8.58 29 13 C27 12 27 12 26 9 C25.80664062 10.07121094 25.61328125 11.14242187 25.4140625 12.24609375 C25.15149745 13.64331489 24.88845175 15.04044578 24.625 16.4375 C24.43550781 17.49807617 24.43550781 17.49807617 24.2421875 18.58007812 C23.89377757 20.40052 23.452957 22.20271648 23 24 C22.34 24.33 21.68 24.66 21 25 C20.34 24.01 19.68 23.02 19 22 C18.01 25.96 17.02 29.92 16 34 C15.34 34 14.68 34 14 34 C12.19003784 28.34244531 10.64270983 22.9129304 10 17 C9.67 19.64 9.34 22.28 9 25 C8.34 24.67 7.68 24.34 7 24 C6.1484375 21.27734375 6.1484375 21.27734375 5.375 17.9375 C4.98441406 16.28041016 4.98441406 16.28041016 4.5859375 14.58984375 C4.39257812 13.73519531 4.19921875 12.88054687 4 12 C3.01 12.33 2.02 12.66 1 13 C-0.00496852 9.98509443 -0.10335303 7.95818308 -0.0625 4.8125 C-0.05347656 3.91144531 -0.04445312 3.01039063 -0.03515625 2.08203125 C-0.02355469 1.39496094 -0.01195312 0.70789063 0 0 Z " fill="#EEFAF0" transform="translate(221,204)"/>
<path d="M0 0 C1.05767578 0.71349609 1.05767578 0.71349609 2.13671875 1.44140625 C6.86197116 4.01354228 11.67992154 4.26085546 17 4 C20.07396466 2.99568178 22.24248371 1.74996226 25 0 C25.27734375 2.29296875 25.27734375 2.29296875 25 5 C23.06640625 6.73828125 23.06640625 6.73828125 20.5625 8.3125 C17.12601394 10.68271145 17.12601394 10.68271145 15.1796875 14.2265625 C14.86633463 16.65717358 14.86633463 16.65717358 15 20 C15.61488281 19.855625 16.22976562 19.71125 16.86328125 19.5625 C17.67152344 19.376875 18.47976562 19.19125 19.3125 19 C20.11300781 18.814375 20.91351563 18.62875 21.73828125 18.4375 C24 18 24 18 27 18 C26.67 18.66 26.34 19.32 26 20 C27.65 18.68 29.3 17.36 31 16 C30.08064508 20.80812058 27.59004348 23.76896086 24 27 C18.94193456 30.03908974 12.78948135 31.25287205 7 30 C2.15831086 27.42919161 -2.09974105 23.66563397 -5 19 C-4.505 17.515 -4.505 17.515 -4 16 C-3.01 16.474375 -2.02 16.94875 -1 17.4375 C2.99189495 19.16813748 6.68114582 19.62115314 11 20 C10.92912725 16.92669971 10.73325153 13.99188031 10 11 C7.78508316 9.13749195 7.78508316 9.13749195 5 8 C2.1875 5.5 2.1875 5.5 0 3 C0 2.01 0 1.02 0 0 Z " fill="#34A84D" transform="translate(223,173)"/>
<path d="M0 0 C1 2 1 2 0.25 4.6875 C-1 8 -1 8 -2.6875 11.5 C-4.17667477 15.47113272 -4.03029257 16.95458652 -3 21 C-1.4758326 23.85885808 -1.4758326 23.85885808 0.4375 26.5625 C7.37534887 36.77373894 7.91010057 47.84475855 7 60 C6.37773005 62.01425534 5.71456437 64.01660841 5 66 C4.62468554 68.32694964 4.28082798 70.65976685 4 73 C3.34 73 2.68 73 2 73 C1.98541748 72.21874756 1.97083496 71.43749512 1.95581055 70.63256836 C1.88099502 67.06706632 1.78444367 63.50246623 1.6875 59.9375 C1.66494141 58.70837891 1.64238281 57.47925781 1.61914062 56.21289062 C1.42641366 49.71273561 1.17666262 44.70930935 -2 39 C-2.32299072 38.41017334 -2.64598145 37.82034668 -2.97875977 37.21264648 C-3.99967826 35.37402436 -5.05514614 33.56052192 -6.125 31.75 C-9.54261287 25.94373297 -12.27517041 20.94125782 -11 14 C-8.29873359 8.55214392 -4.4679651 4.07373289 0 0 Z " fill="#33A74D" transform="translate(216,93)"/>
<path d="M0 0 C2.68022533 2.38242252 4.46936258 4.73377985 6.20703125 7.828125 C8.85470684 12.10091891 11.74967399 14.63053823 16 17.25 C16.67482422 17.6732959 17.34964844 18.0965918 18.04492188 18.53271484 C26.66949305 23.51722105 36.25467414 24.73461854 46 26 C45.34 29.63 44.68 33.26 44 37 C31.02326348 36.16279119 19.17208461 30.74033938 10.1875 21.25 C4.91702863 15.0560301 0.65358601 8.27875618 0 0 Z " fill="#ECF9EE" transform="translate(53,47)"/>
<path d="M0 0 C10.09776705 7.998793 10.09776705 7.998793 11.44921875 13.9921875 C12.05482767 21.55556998 8.12122721 28.1938152 3.43359375 33.91015625 C-3.15451908 43.51408094 -2.74410343 57.83011467 -3 69 C-6.74057291 63.38914063 -7.35919843 58.96565988 -7.3125 52.375 C-7.30831055 51.57537842 -7.30412109 50.77575684 -7.29980469 49.9519043 C-7.10653021 39.77518049 -4.62911618 31.66776669 1.1796875 23.30078125 C3.29583915 20.05358303 4.29558445 17.69218019 3.9375 13.875 C3.06120629 10.25298598 1.93306419 8.10971196 0 5 C-0.1875 2.1875 -0.1875 2.1875 0 0 Z " fill="#2EA74B" transform="translate(256,94)"/>
<path d="M0 0 C1.00546875 0.00193359 1.00546875 0.00193359 2.03125 0.00390625 C0.56295779 3.42992141 -1.31048506 5.41748631 -3.96875 8.00390625 C-6.92718682 11.29345765 -9.83542564 14.62810319 -12.6484375 18.04296875 C-13.16664063 18.66945313 -13.68484375 19.2959375 -14.21875 19.94140625 C-14.90710938 20.79025391 -14.90710938 20.79025391 -15.609375 21.65625 C-16.96875 23.00390625 -16.96875 23.00390625 -19.96875 24.00390625 C-20.86270329 22.09600593 -21.73334334 20.17716819 -22.59375 18.25390625 C-23.08101563 17.1865625 -23.56828125 16.11921875 -24.0703125 15.01953125 C-24.96875 12.00390625 -24.96875 12.00390625 -24.22265625 9.84375 C-23.60197266 8.93302734 -23.60197266 8.93302734 -22.96875 8.00390625 C-22.71738281 7.38128906 -22.46601563 6.75867188 -22.20703125 6.1171875 C-21.01326707 3.79513988 -20.09327163 2.56545019 -17.96875 1.00390625 C-11.98978526 -0.14769726 -6.07539376 0.00799394 0 0 Z " fill="#F1FAF2" transform="translate(400.96875,105.99609375)"/>
<path d="M0 0 C1.65 0 3.3 0 5 0 C5.495 3.465 5.495 3.465 6 7 C4.989375 7.226875 3.97875 7.45375 2.9375 7.6875 C-2.61659343 9.28079549 -6.58936123 12.58936123 -10.625 16.625 C-15.39590793 21.39590793 -19.36388017 22.78593162 -26 23 C-28 21.5625 -28 21.5625 -29 20 C-27.906875 19.855625 -26.81375 19.71125 -25.6875 19.5625 C-22.06877013 19.11711896 -22.06877013 19.11711896 -19 18 C-19 17.34 -19 16.68 -19 16 C-17.37897032 14.28891311 -15.70496537 12.62746694 -14 11 C-13.278125 10.236875 -12.55625 9.47375 -11.8125 8.6875 C-10 7 -10 7 -8 7 C-7.67 6.01 -7.34 5.02 -7 4 C-4.39757586 2.35179805 -3.13751221 2 0 2 C0 1.34 0 0.68 0 0 Z " fill="#35A852" transform="translate(189,75)"/>
<path d="M0 0 C2.7734375 1.921875 2.7734375 1.921875 3.671875 4.15625 C3.72214844 5.03023437 3.72214844 5.03023437 3.7734375 5.921875 C3.1134375 5.921875 2.4534375 5.921875 1.7734375 5.921875 C1.4434375 6.911875 1.1134375 7.901875 0.7734375 8.921875 C0.03738281 8.43976563 -0.69867188 7.95765625 -1.45703125 7.4609375 C-2.92076172 6.51347656 -2.92076172 6.51347656 -4.4140625 5.546875 C-5.37699219 4.92039062 -6.33992188 4.29390625 -7.33203125 3.6484375 C-13.33597723 0.06713639 -18.29719023 -0.95707192 -25.2265625 -0.078125 C-28.38264174 0.99252135 -31.29770118 2.33717709 -34.2265625 3.921875 C-34.2265625 4.581875 -34.2265625 5.241875 -34.2265625 5.921875 C-35.8765625 5.591875 -37.5265625 5.261875 -39.2265625 4.921875 C-29.66283676 -8.78997275 -12.90106173 -6.85681342 0 0 Z M-41.2265625 4.921875 C-40.5665625 5.251875 -39.9065625 5.581875 -39.2265625 5.921875 C-39.8865625 6.581875 -40.5465625 7.241875 -41.2265625 7.921875 C-41.2265625 6.931875 -41.2265625 5.941875 -41.2265625 4.921875 Z " fill="#EAF7ED" transform="translate(82.2265625,96.078125)"/>
<path d="M0 0 C0.33 0 0.66 0 1 0 C1.33 2.64 1.66 5.28 2 8 C4.92879371 7.37240135 7.36095629 6.41377341 10 5 C10.33 5.66 10.66 6.32 11 7 C11.99 7.33 12.98 7.66 14 8 C12.125 15.625 12.125 15.625 11 19 C9.23303157 19.27599507 7.46103785 19.51996915 5.6875 19.75 C4.70136719 19.88921875 3.71523438 20.0284375 2.69921875 20.171875 C0 20 0 20 -1.83203125 18.390625 C-3.27948733 15.42793897 -3.39967816 13.29042098 -3.375 10 C-3.38273437 8.96875 -3.39046875 7.9375 -3.3984375 6.875 C-2.95844537 3.70015484 -2.1827891 2.30467072 0 0 Z " fill="#EFFAF0" transform="translate(409,191)"/>
<path d="M0 0 C1.32 0.33 2.64 0.66 4 1 C4.75 4.25 4.75 4.25 5 8 C3.4375 10.4375 3.4375 10.4375 1 12 C-2.25 12.25 -2.25 12.25 -5 12 C-4.67 12.66 -4.34 13.32 -4 14 C-1.03 14 1.94 14 5 14 C4 16 4 16 2 18 C-2.15579911 18.46175546 -4.70897321 18.58096205 -8.5 16.875 C-10 15 -10 15 -10.625 12.125 C-9.74596004 7.72980021 -7.61552005 6.48123925 -4 4 C-3.01 3.67 -2.02 3.34 -1 3 C-0.67 2.01 -0.34 1.02 0 0 Z " fill="#2FA649" transform="translate(91,181)"/>
<path d="M0 0 C0 0.33 0 0.66 0 1 C-1.65 1 -3.3 1 -5 1 C-4.67 3.31 -4.34 5.62 -4 8 C-2.35 7.01 -0.7 6.02 1 5 C-0.29010992 7.87793751 -1.57361806 9.96183917 -4 12 C-7.52059568 13.17353189 -10.306493 13.20146402 -14 13 C-14.66 12.34 -15.32 11.68 -16 11 C-15.01 10.67 -14.02 10.34 -13 10 C-13.66 9.34 -14.32 8.68 -15 8 C-16.32 9.98 -17.64 11.96 -19 14 C-20.15089256 10.54732232 -19.91927358 10.11212385 -18.375 7 C-14.04414739 -0.93260546 -8.31233461 -0.3930526 0 0 Z " fill="#2EA649" transform="translate(147,119)"/>
<path d="M0 0 C1.14626322 0.97866338 2.29199788 1.95794587 3.4375 2.9375 C4.07558594 3.48277344 4.71367187 4.02804688 5.37109375 4.58984375 C6.26991149 5.36795695 7.15936528 6.15936528 8 7 C11.05267962 7.30657885 14.12132379 7.27845659 17.1875 7.3125 C18.03892578 7.34150391 18.89035156 7.37050781 19.76757812 7.40039062 C26.40362267 7.46711033 29.95809862 5.83910795 34.875 1.25 C35.24625 0.8375 35.6175 0.425 36 0 C35.08064508 4.80812058 32.59004348 7.76896086 29 11 C23.94193456 14.03908974 17.78948135 15.25287205 12 14 C7.10882471 11.40291577 3.01554315 7.64896236 0 3 C0 2.01 0 1.02 0 0 Z " fill="#D9F2DE" transform="translate(218,189)"/>
<path d="M0 0 C6.27 0 12.54 0 19 0 C17.68 2.97 16.36 5.94 15 9 C11.04 9 7.08 9 3 9 C0 3.375 0 3.375 0 0 Z " fill="#32A64C" transform="translate(227,53)"/>
<path d="M0 0 C1.7734375 1.5234375 1.7734375 1.5234375 3 3 C2.33333333 4.33333333 1.66666667 5.66666667 1 7 C1.66 7.33 2.32 7.66 3 8 C0.49936853 10.50063147 -0.47811698 10.32420142 -3.9375 10.375 C-5.25041016 10.41753906 -5.25041016 10.41753906 -6.58984375 10.4609375 C-9 10 -9 10 -10.81640625 7.9765625 C-11.20699219 7.32429687 -11.59757812 6.67203125 -12 6 C-10.68 6 -9.36 6 -8 6 C-8.33 5.34 -8.66 4.68 -9 4 C-10.65 4.33 -12.3 4.66 -14 5 C-14 4.34 -14 3.68 -14 3 C-9.88911539 -0.44783871 -5.16869301 -0.98727844 0 0 Z " fill="#3BA953" transform="translate(360,158)"/>
<path d="M0 0 C3.44832136 2.2668248 6.73605632 4.71601901 9.9609375 7.2890625 C9.3009375 7.9490625 8.6409375 8.6090625 7.9609375 9.2890625 C7.39246094 8.87914063 6.82398438 8.46921875 6.23828125 8.046875 C-1.50665736 2.64222669 -8.51856638 0.20465088 -18.0390625 1.2890625 C-19.38642631 1.92689711 -20.72205771 2.59069253 -22.0390625 3.2890625 C-24.7890625 3.4140625 -24.7890625 3.4140625 -27.0390625 3.2890625 C-19.21535765 -3.61420649 -9.21461004 -5.2278808 0 0 Z " fill="#36A850" transform="translate(73.0390625,97.7109375)"/>
<path d="M0 0 C2.125 0.375 2.125 0.375 4 1 C3.50269348 5.97306516 2.44697666 9.63799813 0 14 C-0.66 14 -1.32 14 -2 14 C-3.28939122 11.42121756 -2.96551673 9.85485837 -2.6875 7 C-2.60886719 6.113125 -2.53023438 5.22625 -2.44921875 4.3125 C-2 2 -2 2 0 0 Z " fill="#32A64B" transform="translate(414,186)"/>
<path d="M0 0 C5.1852128 -0.33097103 8.91100049 0.49604563 13.77734375 2.265625 C16.84481925 3.27913184 19.79364922 3.65889885 23 4 C22.07603314 6.38691438 21.50709674 7.71023043 19.25 9 C15.73884829 9 13.79941174 7.01557645 11 5 C7.32687141 2.97603118 4.15661824 1.61126739 0 1 C0 0.67 0 0.34 0 0 Z " fill="#E0F3E4" transform="translate(70,86)"/>
<path d="M0 0 C0 0.99 0 1.98 0 3 C-0.66 3 -1.32 3 -2 3 C-2 2.34 -2 1.68 -2 1 C-8.6 0.67 -15.2 0.34 -22 0 C-22 0.66 -22 1.32 -22 2 C-25.3 2 -28.6 2 -32 2 C-21.47938111 -3.26030945 -11.17382602 -2.93083961 0 0 Z " fill="#C4E7CC" transform="translate(173,17)"/>
<path d="M0 0 C-1.64802048 1.97446544 -2.56434371 2.90933856 -5.12109375 3.44140625 C-5.88550781 3.48136719 -6.64992188 3.52132812 -7.4375 3.5625 C-10.84424022 3.75272407 -12.98481198 4.43310105 -16 6 C-18.75 6.125 -18.75 6.125 -21 6 C-14.33573556 0.11976667 -8.54812017 -0.30408333 0 0 Z " fill="#4AAA60" transform="translate(67,95)"/>
<path d="M0 0 C3 2.5 3 2.5 5 5 C4.67 5.66 4.34 6.32 4 7 C3.113125 6.34 2.22625 5.68 1.3125 5 C-2.04463241 2.97305213 -3.22340539 2.32214969 -7 3 C-8.68029994 3.97691857 -10.34928604 4.97388051 -12 6 C-12.66 5.67 -13.32 5.34 -14 5 C-9.28792756 0.28792756 -6.69852169 -1.06325741 0 0 Z " fill="#43A557" transform="translate(360,151)"/>
<path d="M0 0 C0.33 0.66 0.66 1.32 1 2 C-9.395 2.495 -9.395 2.495 -20 3 C-15.28089412 -1.71910588 -6.17344025 -1.61046267 0 0 Z " fill="#B6E6C0" transform="translate(331,18)"/>
<path d="M0 0 C0 4 0 4 -1 6 C-2.30915279 7.03145371 -3.64082143 8.03542166 -5 9 C-5.66 8.67 -6.32 8.34 -7 8 C-7 5.69 -7 3.38 -7 1 C-2.25 0 -2.25 0 0 0 Z " fill="#BDE4C6" transform="translate(149,119)"/>
<path d="M0 0 C0.99 0.33 1.98 0.66 3 1 C3 4.63 3 8.26 3 12 C2.01 12.495 2.01 12.495 1 13 C-0.00496852 9.98509443 -0.10335303 7.95818308 -0.0625 4.8125 C-0.05347656 3.91144531 -0.04445312 3.01039063 -0.03515625 2.08203125 C-0.02355469 1.39496094 -0.01195312 0.70789063 0 0 Z " fill="#B9E8C5" transform="translate(221,204)"/>
<path d="M0 0 C1.32 0.33 2.64 0.66 4 1 C6.38965954 5.36730881 7.22853597 7.08585612 6 12 C4.02 8.04 2.04 4.08 0 0 Z " fill="#4BA860" transform="translate(274,202)"/>
<path d="M0 0 C1.07421875 1.78125 1.07421875 1.78125 2 4 C0.5847119 8.17137544 -1.16599175 11.62618065 -4 15 C-3.32584613 9.7415998 -1.75734451 4.97361654 0 0 Z " fill="#47AA5D" transform="translate(195,198)"/>
<path d="M0 0 C2 1 2 1 3.10546875 3.87109375 C3.46253906 5.04800781 3.81960938 6.22492188 4.1875 7.4375 C4.55230469 8.61183594 4.91710937 9.78617188 5.29296875 10.99609375 C6 14 6 14 5 16 C-0.74031891 5.62642369 -0.74031891 5.62642369 0 0 Z " fill="#CCEFD4" transform="translate(267,183)"/>
<path d="M0 0 C3.96 0.33 7.92 0.66 12 1 C12 1.66 12 2.32 12 3 C8.7 3.33 5.4 3.66 2 4 C2.33 3.01 2.66 2.02 3 1 C2.01 0.67 1.02 0.34 0 0 Z " fill="#BBE9C5" transform="translate(299,107)"/>
<path d="M0 0 C1.98 0.99 1.98 0.99 4 2 C4 2.66 4 3.32 4 4 C4.804375 4.28875 5.60875 4.5775 6.4375 4.875 C9 6 9 6 10 8 C9.34 8 8.68 8 8 8 C7.67 8.66 7.34 9.32 7 10 C5.82739389 8.71372289 4.6620717 7.42080217 3.5 6.125 C2.8503125 5.40570313 2.200625 4.68640625 1.53125 3.9453125 C0 2 0 2 0 0 Z " fill="#C6EDCF" transform="translate(155,37)"/>
<path d="M0 0 C2.4294516 3.6441774 2.16179575 5.71241272 2 10 C-1 10 -1 10 -3 9 C-2.01 6.03 -1.02 3.06 0 0 Z " fill="#DBF6E2" transform="translate(418,188)"/>
<path d="M0 0 C0.33 0.99 0.66 1.98 1 3 C-0.11878383 4.17262904 -1.24523051 5.33795138 -2.375 6.5 C-3.00148438 7.1496875 -3.62796875 7.799375 -4.2734375 8.46875 C-6 10 -6 10 -8 10 C-8 10.66 -8 11.32 -8 12 C-8.66 11.67 -9.32 11.34 -10 11 C-9.04882866 9.8274869 -8.08882991 8.66212985 -7.125 7.5 C-6.32449219 6.52546875 -6.32449219 6.52546875 -5.5078125 5.53125 C-5.01023437 5.0259375 -4.51265625 4.520625 -4 4 C-3.34 4 -2.68 4 -2 4 C-1.34 2.68 -0.68 1.36 0 0 Z " fill="#DDF4E2" transform="translate(298,35)"/>
<path d="M0 0 C0.66 0.33 1.32 0.66 2 1 C1.01 1.33 0.02 1.66 -1 2 C-2.22520264 5.00847418 -2.22520264 5.00847418 -3 8 C-3.66 7.34 -4.32 6.68 -5 6 C-6.32 6.99 -7.64 7.98 -9 9 C-7.48328036 4.44984107 -3.83108947 2.49942736 0 0 Z " fill="#4AAA5F" transform="translate(413,179)"/>
<path d="M0 0 C0.99 0 1.98 0 3 0 C3.33 1.32 3.66 2.64 4 4 C1.36 3.67 -1.28 3.34 -4 3 C-4.33 3.66 -4.66 4.32 -5 5 C-5.33 3.68 -5.66 2.36 -6 1 C-4.7934375 1.0309375 -4.7934375 1.0309375 -3.5625 1.0625 C-1.06645115 1.29633621 -1.06645115 1.29633621 0 0 Z " fill="#AADDB4" transform="translate(206,132)"/>
<path d="M0 0 C0.33 0.66 0.66 1.32 1 2 C0.22265625 3.7265625 0.22265625 3.7265625 -0.9375 5.625 C-1.618125 6.73875 -2.29875 7.8525 -3 9 C-3.99 9 -4.98 9 -6 9 C-6.99 9.495 -6.99 9.495 -8 10 C-7.34 8.35 -6.68 6.7 -6 5 C-5.01 5 -4.02 5 -3 5 C-1.28288757 2.55503957 -1.28288757 2.55503957 0 0 Z " fill="#C6EDD1" transform="translate(251,49)"/>
<path d="M0 0 C0.66 0.33 1.32 0.66 2 1 C1.05125 1.9075 0.1025 2.815 -0.875 3.75 C-3.14549867 6.00978877 -4.83296506 7.96570916 -6 11 C-6.375 8.3125 -6.375 8.3125 -6 5 C-4.176017 2.93601924 -2.27236161 1.60958947 0 0 Z " fill="#55B66A" transform="translate(87,185)"/>
<path d="M0 0 C0.33 0 0.66 0 1 0 C1 3.3 1 6.6 1 10 C0.01 10.33 -0.98 10.66 -2 11 C-1.85892253 9.54119891 -1.71197585 8.08296449 -1.5625 6.625 C-1.48128906 5.81289062 -1.40007812 5.00078125 -1.31640625 4.1640625 C-1 2 -1 2 0 0 Z " fill="#47A75C" transform="translate(181,150)"/>
<path d="M0 0 C0.66 0.33 1.32 0.66 2 1 C1.67 2.65 1.34 4.3 1 6 C-0.65 5.67 -2.3 5.34 -4 5 C-2.68 3.35 -1.36 1.7 0 0 Z M-6 5 C-5.34 5.33 -4.68 5.66 -4 6 C-4.66 6.66 -5.32 7.32 -6 8 C-6 7.01 -6 6.02 -6 5 Z " fill="#D8EEDD" transform="translate(47,96)"/>
<path d="M0 0 C0.8971875 0.309375 0.8971875 0.309375 1.8125 0.625 C0.8225 0.625 -0.1675 0.625 -1.1875 0.625 C-1.435 1.24375 -1.6825 1.8625 -1.9375 2.5 C-3.39378639 4.97568687 -4.56562506 5.57625002 -7.1875 6.625 C-4.6484375 -0.796875 -4.6484375 -0.796875 0 0 Z " fill="#CDEDD4" transform="translate(184.1875,72.375)"/>
<path d="M0 0 C1.6415049 3.2830098 0.51888624 6.42545033 0 10 C-0.66 9.67 -1.32 9.34 -2 9 C-2.40729228 6.67843403 -2.74438677 4.3431213 -3 2 C-2.01 1.34 -1.02 0.68 0 0 Z " fill="#CEF2D7" transform="translate(230,219)"/>
<path d="M0 0 C2.0625 0.4375 2.0625 0.4375 4 1 C4 2.65 4 4.3 4 6 C3.01 5.01 2.02 4.02 1 3 C0.01 3.66 -0.98 4.32 -2 5 C-1.125 1.125 -1.125 1.125 0 0 Z " fill="#5DB671" transform="translate(414,186)"/>
<path d="M0 0 C0.66 0.99 1.32 1.98 2 3 C0.37660195 4.70884005 -1.29319053 6.37446717 -3 8 C-3.66 8 -4.32 8 -5 8 C-3.62845496 5.04590299 -2.01136276 2.55991624 0 0 Z " fill="#48AC5E" transform="translate(411,174)"/>
<path d="M0 0 C0.66 0.33 1.32 0.66 2 1 C0.02 3.31 -1.96 5.62 -4 8 C-4.33 7.01 -4.66 6.02 -5 5 C-3.35 3.35 -1.7 1.7 0 0 Z " fill="#DFF7E5" transform="translate(390,172)"/>
<path d="M0 0 C0.99 0.99 1.98 1.98 3 3 C2.01 4.485 2.01 4.485 1 6 C-0.32 5.67 -1.64 5.34 -3 5 C-1.125 1.125 -1.125 1.125 0 0 Z " fill="#C4EDCD" transform="translate(132,126)"/>
<path d="M0 0 C2.8125 -0.1875 2.8125 -0.1875 6 0 C6.99 0.99 7.98 1.98 9 3 C5.7 2.67 2.4 2.34 -1 2 C-0.67 1.34 -0.34 0.68 0 0 Z " fill="#52B066" transform="translate(250,70)"/>
<path d="M0 0 C2.31 1.98 4.62 3.96 7 6 C6.01 6.66 5.02 7.32 4 8 C0 3.375 0 3.375 0 0 Z " fill="#B8EBC4" transform="translate(218,189)"/>
<path d="M0 0 C0.66 0.99 1.32 1.98 2 3 C1.2884375 3.6496875 1.2884375 3.6496875 0.5625 4.3125 C-1.23686957 6.02309613 -1.23686957 6.02309613 -2 9 C-2.66 9 -3.32 9 -4 9 C-3.67 7.35 -3.34 5.7 -3 4 C-2.34 4 -1.68 4 -1 4 C-0.67 2.68 -0.34 1.36 0 0 Z " fill="#56B16B" transform="translate(387,171)"/>
<path d="M0 0 C1.98 0.66 3.96 1.32 6 2 C5.6875 3.9375 5.6875 3.9375 5 6 C4.01 6.33 3.02 6.66 2 7 C2 5.68 2 4.36 2 3 C1.34 2.67 0.68 2.34 0 2 C0 1.34 0 0.68 0 0 Z " fill="#6EC282" transform="translate(197,122)"/>
<path d="M0 0 C-0.33 0.66 -0.66 1.32 -1 2 C-3.31 2 -5.62 2 -8 2 C-8 1.34 -8 0.68 -8 0 C-4.94736336 -0.98120464 -3.05263664 -0.98120464 0 0 Z " fill="#B2E9BE" transform="translate(169,108)"/>
<path d="M0 0 C1.875 0.3125 1.875 0.3125 4 1 C4.66 1.99 5.32 2.98 6 4 C3.03 4 0.06 4 -3 4 C-2.01 2.68 -1.02 1.36 0 0 Z " fill="#67BB7A" transform="translate(257,55)"/>
</svg>
